<svg xmlns="http://www.w3.org/2000/svg" viewBox="0 0 300 300" width="900" height="900">
  <defs>
    <clipPath id="card"><rect width="300" height="300" rx="10"/></clipPath>
  </defs>
  <g clip-path="url(#card)">
    <rect width="300" height="300" fill="#1A1F2E"/>
    
    <!-- Background watermark chevrons -->
    <g opacity="0.065" transform="translate(190, -15) scale(3.8)">
      <path d="M0,1 L16,14 L0,27 L0,20 L10,14 L0,8Z" fill="#FFF"/>
      <path d="M19,1 L35,14 L19,27 L19,20 L29,14 L19,8Z" fill="#FFF"/>
    </g>

    <!-- SHIFT WORDMARK + CHEVRONS -->
    <path d="M331 -14Q267 -14 215.0 -2.0Q163 10 125.0 34.5Q87 59 65.0 97.0Q43 135 39 185L180 232Q183 190 204.0 162.0Q225 134 260.5 120.5Q296 107 340 107Q382 107 410.5 117.5Q439 128 453.5 144.5Q468 161 468 180Q468 202 449.0 216.5Q430 231 397.0 241.5Q364 252 320 262Q270 274 222.0 288.0Q174 302 135.0 324.5Q96 347 73.5 382.5Q51 418 51 472Q51 533 82.0 578.0Q113 623 173.0 648.5Q233 674 321 674Q408 674 469.0 649.0Q530 624 563.0 579.5Q596 535 599 476L455 435Q455 464 445.5 486.0Q436 508 419.0 522.5Q402 537 377.0 544.5Q352 552 320 552Q282 552 255.5 543.0Q229 534 216.0 519.5Q203 505 203 486Q203 462 223.5 446.5Q244 431 279.5 420.5Q315 410 358 400Q401 391 447.0 377.5Q493 364 533.0 342.0Q573 320 597.5 282.5Q622 245 622 188Q622 127 589.5 81.5Q557 36 492.0 11.0Q427 -14 331 -14Z" transform="translate(82.40,48.00) scale(0.040000,-0.040000)" fill="#FFFFFF"/>
    <path d="M62 0V336V720H223V555Q223 535 221.5 513.5Q220 492 216.5 469.5Q213 447 209.5 424.0Q206 401 201 379H225Q239 428 260.0 464.5Q281 501 315.0 521.5Q349 542 402 542Q496 542 542.5 476.5Q589 411 589 275V0H427V248Q427 329 403.5 369.5Q380 410 332 410Q295 410 271.0 387.0Q247 364 235.0 325.5Q223 287 223 240V0Z" transform="translate(107.36,48.00) scale(0.040000,-0.040000)" fill="#FFFFFF"/>
    <path d="M62 0V528H223V0ZM143 602Q97 602 72.5 621.5Q48 641 48 677Q48 715 72.5 734.5Q97 754 143 754Q190 754 214.5 734.5Q239 715 239 678Q239 641 214.5 621.5Q190 602 143 602Z" transform="translate(131.72,48.00) scale(0.040000,-0.040000)" fill="#FFFFFF"/>
    <path d="M102 0V327H21V444L165 438V457Q127 464 102.5 482.5Q78 501 67.0 526.0Q56 551 56 580Q56 624 79.0 655.5Q102 687 144.0 704.0Q186 721 242 721Q291 721 331.0 709.5Q371 698 395 681L386 536Q361 553 329.5 564.0Q298 575 271 575Q243 575 224.0 560.5Q205 546 205 513Q205 487 216.5 474.0Q228 461 245.0 456.5Q262 452 279 452H395V327H259V0Z" transform="translate(141.80,48.00) scale(0.040000,-0.040000)" fill="#FFFFFF"/>
    <path d="M268 -13Q175 -13 131.0 36.5Q87 86 87 195V402H12L15 527H69Q101 528 117.5 537.0Q134 546 138 571L151 645H242V528H369V397H242V202Q242 168 258.5 152.0Q275 136 309 136Q328 136 345.0 140.0Q362 144 373 151V2Q341 -8 314.5 -10.5Q288 -13 268 -13Z" transform="translate(156.76,48.00) scale(0.040000,-0.040000)" fill="#FFFFFF"/>
    <g transform="translate(178.0, 19) scale(1.1)">
      <path d="M0,1 L16,14 L0,27 L0,20 L10,14 L0,8Z" fill="#BAF14D"/>
      <path d="M19,1 L35,14 L19,27 L19,20 L29,14 L19,8Z" fill="#2966E5"/>
    </g>

    <!-- REWARDS PARTNER ribbon -->
    <rect x="15" y="63" width="270" height="24" rx="3" fill="#2D3241"/>
    <rect x="15" y="68" width="4" height="14" fill="#BAF14D"/>
    <path d="M150 0V1490H707Q878 1490 995.0 1430.0Q1112 1370 1172.0 1262.5Q1232 1155 1232 1013Q1232 871 1171.5 766.0Q1111 661 993.0 604.0Q875 547 703 547H305V768H668Q769 768 833.0 796.5Q897 825 928.0 880.0Q959 935 959 1013Q959 1093 928.0 1149.5Q897 1206 832.5 1236.0Q768 1266 666 1266H417V0ZM988 0 626 676H918L1287 0Z" transform="translate(73.08,79.00) scale(0.005127,-0.005127)" fill="#FFFFFF"/>
    <path d="M150 0V1490H1118V1265H417V863H1066V641H417V225H1122V0Z" transform="translate(83.43,79.00) scale(0.005127,-0.005127)" fill="#FFFFFF"/>
    <path d="M452 0 50 1490H337L531 697Q551 611 568.5 516.0Q586 421 602.5 325.0Q619 229 634 137H591Q608 229 625.0 325.0Q642 421 661.0 516.0Q680 611 701 697L903 1490H1186L1387 697Q1409 611 1427.5 516.0Q1446 421 1463.5 325.0Q1481 229 1499 137H1453Q1469 229 1485.5 325.0Q1502 421 1520.0 516.0Q1538 611 1558 697L1751 1490H2039L1636 0H1330L1113 823Q1083 938 1060.5 1073.0Q1038 1208 1012 1359H1076Q1048 1213 1028.0 1080.5Q1008 948 975 823L758 0Z" transform="translate(93.29,79.00) scale(0.005127,-0.005127)" fill="#FFFFFF"/>
    <path d="M50 0 570 1490H909L1441 0H1148L883 774Q844 894 802.0 1045.5Q760 1197 709 1390H765Q715 1195 674.5 1042.5Q634 890 598 774L342 0ZM353 369V584H1138V369Z" transform="translate(107.50,79.00) scale(0.005127,-0.005127)" fill="#FFFFFF"/>
    <path d="M150 0V1490H707Q878 1490 995.0 1430.0Q1112 1370 1172.0 1262.5Q1232 1155 1232 1013Q1232 871 1171.5 766.0Q1111 661 993.0 604.0Q875 547 703 547H305V768H668Q769 768 833.0 796.5Q897 825 928.0 880.0Q959 935 959 1013Q959 1093 928.0 1149.5Q897 1206 832.5 1236.0Q768 1266 666 1266H417V0ZM988 0 626 676H918L1287 0Z" transform="translate(118.64,79.00) scale(0.005127,-0.005127)" fill="#FFFFFF"/>
    <path d="M654 0H277V231H641Q797 231 901.5 288.5Q1006 346 1059.0 460.5Q1112 575 1112 747Q1112 917 1059.0 1031.0Q1006 1145 903.5 1202.0Q801 1259 648 1259H269V1490H664Q886 1490 1045.0 1401.0Q1204 1312 1289.5 1145.0Q1375 978 1375 747Q1375 514 1289.5 346.5Q1204 179 1042.5 89.5Q881 0 654 0ZM417 1490V0H150V1490Z" transform="translate(128.99,79.00) scale(0.005127,-0.005127)" fill="#FFFFFF"/>
    <path d="M673 -23Q500 -23 372.5 31.0Q245 85 173.0 188.0Q101 291 95 438H358Q365 360 407.0 308.0Q449 256 518.0 230.5Q587 205 671 205Q759 205 826.5 232.0Q894 259 932.0 307.5Q970 356 970 420Q970 478 936.5 516.0Q903 554 842.5 580.5Q782 607 701 627L532 671Q345 719 240.5 816.0Q136 913 136 1071Q136 1203 207.0 1302.0Q278 1401 401.0 1455.5Q524 1510 680 1510Q839 1510 959.0 1455.0Q1079 1400 1146.5 1303.0Q1214 1206 1217 1082H958Q948 1178 872.5 1230.5Q797 1283 676 1283Q592 1283 531.5 1257.5Q471 1232 438.5 1188.0Q406 1144 406 1087Q406 1025 444.5 985.0Q483 945 541.5 921.0Q600 897 660 882L799 846Q882 826 960.0 793.0Q1038 760 1100.5 709.5Q1163 659 1200.0 587.0Q1237 515 1237 418Q1237 287 1170.0 187.5Q1103 88 977.0 32.5Q851 -23 673 -23Z" transform="translate(140.07,79.00) scale(0.005127,-0.005127)" fill="#FFFFFF"/>
    <path d="M150 0V1490H707Q878 1490 995.0 1426.0Q1112 1362 1172.0 1250.5Q1232 1139 1232 997Q1232 854 1171.5 743.0Q1111 632 993.0 568.0Q875 504 703 504H334V724H668Q769 724 833.5 759.0Q898 794 928.5 856.0Q959 918 959 997Q959 1076 928.5 1137.0Q898 1198 833.0 1232.0Q768 1266 666 1266H417V0Z" transform="translate(156.55,79.00) scale(0.005127,-0.005127)" fill="#FFFFFF"/>
    <path d="M50 0 570 1490H909L1441 0H1148L883 774Q844 894 802.0 1045.5Q760 1197 709 1390H765Q715 1195 674.5 1042.5Q634 890 598 774L342 0ZM353 369V584H1138V369Z" transform="translate(166.82,79.00) scale(0.005127,-0.005127)" fill="#FFFFFF"/>
    <path d="M150 0V1490H707Q878 1490 995.0 1430.0Q1112 1370 1172.0 1262.5Q1232 1155 1232 1013Q1232 871 1171.5 766.0Q1111 661 993.0 604.0Q875 547 703 547H305V768H668Q769 768 833.0 796.5Q897 825 928.0 880.0Q959 935 959 1013Q959 1093 928.0 1149.5Q897 1206 832.5 1236.0Q768 1266 666 1266H417V0ZM988 0 626 676H918L1287 0Z" transform="translate(177.96,79.00) scale(0.005127,-0.005127)" fill="#FFFFFF"/>
    <path d="M83 1265V1490H1269V1265H810V0H543V1265Z" transform="translate(188.31,79.00) scale(0.005127,-0.005127)" fill="#FFFFFF"/>
    <path d="M150 0V1490H452L967 669Q999 618 1035.0 553.5Q1071 489 1110.0 409.5Q1149 330 1187 233H1157Q1150 317 1144.5 405.5Q1139 494 1136.5 573.5Q1134 653 1134 708V1490H1405V0H1102L637 739Q593 810 554.0 879.0Q515 948 470.0 1035.0Q425 1122 361 1245H399Q405 1136 410.0 1038.5Q415 941 418.5 864.0Q422 787 422 740V0Z" transform="translate(198.74,79.00) scale(0.005127,-0.005127)" fill="#FFFFFF"/>
    <path d="M150 0V1490H1118V1265H417V863H1066V641H417V225H1122V0Z" transform="translate(210.21,79.00) scale(0.005127,-0.005127)" fill="#FFFFFF"/>
    <path d="M150 0V1490H707Q878 1490 995.0 1430.0Q1112 1370 1172.0 1262.5Q1232 1155 1232 1013Q1232 871 1171.5 766.0Q1111 661 993.0 604.0Q875 547 703 547H305V768H668Q769 768 833.0 796.5Q897 825 928.0 880.0Q959 935 959 1013Q959 1093 928.0 1149.5Q897 1206 832.5 1236.0Q768 1266 666 1266H417V0ZM988 0 626 676H918L1287 0Z" transform="translate(220.07,79.00) scale(0.005127,-0.005127)" fill="#FFFFFF"/>

    <!-- Tagline -->
    <path d="M164 0 20 660H196L283 136H294L403 660H606L717 136H728L815 660H981L836 0H612L507 523H497L393 0Z" transform="translate(39.23,108.00) scale(0.020000,-0.020000)" fill="#BAF14D"/>
    <path d="M186 -14Q142 -14 108.0 3.5Q74 21 55.0 54.5Q36 88 36 136Q36 181 53.5 210.5Q71 240 104.5 257.5Q138 275 185.0 286.5Q232 298 292 307Q321 312 340.5 316.5Q360 321 370.0 331.0Q380 341 380 360Q380 385 362.0 403.0Q344 421 304 421Q276 421 253.5 411.0Q231 401 215.0 382.0Q199 363 191 336L49 378Q62 420 85.5 451.0Q109 482 142.0 502.5Q175 523 217.5 532.5Q260 542 308 542Q388 542 438.5 516.5Q489 491 513.5 437.5Q538 384 538 300V219Q538 183 539.5 146.5Q541 110 543.5 73.5Q546 37 550 0H408Q404 23 400.0 55.5Q396 88 394 122H375Q361 84 334.5 52.5Q308 21 270.5 3.5Q233 -14 186 -14ZM259 100Q277 100 295.5 106.5Q314 113 331.0 124.5Q348 136 362.0 153.0Q376 170 383 190L381 269L403 264Q384 252 361.0 245.0Q338 238 314.5 234.0Q291 230 268.5 225.5Q246 221 228.5 214.0Q211 207 201.0 195.0Q191 183 191 162Q191 134 210.0 117.0Q229 100 259 100Z" transform="translate(59.45,108.00) scale(0.020000,-0.020000)" fill="#BAF14D"/>
    <path d="M62 0V720H220V0Z" transform="translate(71.55,108.00) scale(0.020000,-0.020000)" fill="#BAF14D"/>
    <path d="M62 0V721H220V323Q249 344 274.5 368.0Q300 392 321.5 418.0Q343 444 360.5 471.5Q378 499 391 528H575Q562 489 539.0 450.5Q516 412 483.0 379.5Q450 347 404.5 324.0Q359 301 302 293V275Q374 289 420.5 275.5Q467 262 495.0 232.0Q523 202 538.0 162.0Q553 122 563 83L584 0H409L399 50Q389 99 375.5 134.0Q362 169 337.0 188.5Q312 208 265 208H220V0Z" transform="translate(77.41,108.00) scale(0.020000,-0.020000)" fill="#BAF14D"/>
    <path d="M125 -13Q73 -13 47.5 9.0Q22 31 22 77Q22 124 47.5 146.0Q73 168 125 168Q178 168 204.0 146.0Q230 124 230 77Q230 -13 125 -13Z" transform="translate(89.71,108.00) scale(0.020000,-0.020000)" fill="#BAF14D"/>
    <path d="M69 0V660H354Q416 660 465.5 649.5Q515 639 550.0 617.5Q585 596 603.5 562.5Q622 529 622 483Q622 444 605.5 415.0Q589 386 554.0 368.0Q519 350 461 344V327Q557 321 603.0 281.0Q649 241 649 173Q649 115 618.0 77.0Q587 39 527.0 19.5Q467 0 379 0ZM223 128H373Q434 128 463.0 145.5Q492 163 492 201Q492 243 457.0 264.0Q422 285 350 285H223ZM223 383H328Q399 383 432.0 402.5Q465 422 465 461Q465 499 434.5 516.5Q404 534 342 534H223Z" transform="translate(99.61,108.00) scale(0.020000,-0.020000)" fill="#BAF14D"/>
    <path d="M62 0V528H223V0ZM143 602Q97 602 72.5 621.5Q48 641 48 677Q48 715 72.5 734.5Q97 754 143 754Q190 754 214.5 734.5Q239 715 239 678Q239 641 214.5 621.5Q190 602 143 602Z" transform="translate(113.65,108.00) scale(0.020000,-0.020000)" fill="#BAF14D"/>
    <path d="M62 0V721H220V323Q249 344 274.5 368.0Q300 392 321.5 418.0Q343 444 360.5 471.5Q378 499 391 528H575Q562 489 539.0 450.5Q516 412 483.0 379.5Q450 347 404.5 324.0Q359 301 302 293V275Q374 289 420.5 275.5Q467 262 495.0 232.0Q523 202 538.0 162.0Q553 122 563 83L584 0H409L399 50Q389 99 375.5 134.0Q362 169 337.0 188.5Q312 208 265 208H220V0Z" transform="translate(119.57,108.00) scale(0.020000,-0.020000)" fill="#BAF14D"/>
    <path d="M313 -14Q247 -14 195.0 3.5Q143 21 106.5 55.0Q70 89 51.0 139.0Q32 189 32 254Q32 317 50.5 370.0Q69 423 103.5 461.5Q138 500 188.5 521.0Q239 542 302 542Q366 542 414.5 521.5Q463 501 494.5 461.0Q526 421 541.0 363.5Q556 306 551 232L138 229V313L459 316L402 277Q409 327 396.0 358.5Q383 390 358.0 404.5Q333 419 304 419Q269 419 242.5 400.0Q216 381 201.0 345.0Q186 309 186 257Q186 175 221.5 138.0Q257 101 312 101Q339 101 357.0 108.5Q375 116 386.5 127.5Q398 139 404.5 153.0Q411 167 415 180L555 150Q547 113 529.5 83.0Q512 53 482.5 31.0Q453 9 411.5 -2.5Q370 -14 313 -14Z" transform="translate(131.87,108.00) scale(0.020000,-0.020000)" fill="#BAF14D"/>
    <path d="M125 -13Q73 -13 47.5 9.0Q22 31 22 77Q22 124 47.5 146.0Q73 168 125 168Q178 168 204.0 146.0Q230 124 230 77Q230 -13 125 -13Z" transform="translate(143.81,108.00) scale(0.020000,-0.020000)" fill="#BAF14D"/>
    <path d="M69 0V660H350Q405 660 450.0 651.5Q495 643 529.5 626.5Q564 610 588.0 586.5Q612 563 624.0 532.5Q636 502 636 465Q636 430 625.0 402.0Q614 374 591.5 353.0Q569 332 535.0 319.0Q501 306 456 300V285Q513 279 544.5 259.5Q576 240 593.0 208.0Q610 176 623 131L661 0H482L453 121Q444 161 428.5 183.0Q413 205 389.0 213.5Q365 222 329 222H230V0ZM230 341H339Q400 341 434.0 365.0Q468 389 468 440Q468 490 437.0 514.0Q406 538 343 538H230Z" transform="translate(153.71,108.00) scale(0.020000,-0.020000)" fill="#BAF14D"/>
    <path d="M62 0V528H223V0ZM143 602Q97 602 72.5 621.5Q48 641 48 677Q48 715 72.5 734.5Q97 754 143 754Q190 754 214.5 734.5Q239 715 239 678Q239 641 214.5 621.5Q190 602 143 602Z" transform="translate(167.67,108.00) scale(0.020000,-0.020000)" fill="#BAF14D"/>
    <path d="M255 -14Q189 -14 139.5 19.5Q90 53 62.0 115.5Q34 178 34 265Q34 345 58.0 407.0Q82 469 129.5 504.5Q177 540 247 540Q297 540 331.5 522.0Q366 504 389.0 468.0Q412 432 426 377H451Q444 411 438.0 441.5Q432 472 428.5 498.5Q425 525 425 545V720H587V258V0H455L453 156H431Q420 96 396.5 58.5Q373 21 337.5 3.5Q302 -14 255 -14ZM313 116Q344 116 365.5 129.5Q387 143 400.0 164.0Q413 185 419.0 209.0Q425 233 425 254V275Q425 294 420.0 313.0Q415 332 405.5 350.0Q396 368 382.0 382.0Q368 396 349.5 404.0Q331 412 309 412Q276 412 252.5 394.0Q229 376 216.5 343.0Q204 310 204 265Q204 220 217.0 186.5Q230 153 255.0 134.5Q280 116 313 116Z" transform="translate(173.59,108.00) scale(0.020000,-0.020000)" fill="#BAF14D"/>
    <path d="M313 -14Q247 -14 195.0 3.5Q143 21 106.5 55.0Q70 89 51.0 139.0Q32 189 32 254Q32 317 50.5 370.0Q69 423 103.5 461.5Q138 500 188.5 521.0Q239 542 302 542Q366 542 414.5 521.5Q463 501 494.5 461.0Q526 421 541.0 363.5Q556 306 551 232L138 229V313L459 316L402 277Q409 327 396.0 358.5Q383 390 358.0 404.5Q333 419 304 419Q269 419 242.5 400.0Q216 381 201.0 345.0Q186 309 186 257Q186 175 221.5 138.0Q257 101 312 101Q339 101 357.0 108.5Q375 116 386.5 127.5Q398 139 404.5 153.0Q411 167 415 180L555 150Q547 113 529.5 83.0Q512 53 482.5 31.0Q453 9 411.5 -2.5Q370 -14 313 -14Z" transform="translate(186.77,108.00) scale(0.020000,-0.020000)" fill="#BAF14D"/>
    <path d="M125 -13Q73 -13 47.5 9.0Q22 31 22 77Q22 124 47.5 146.0Q73 168 125 168Q178 168 204.0 146.0Q230 124 230 77Q230 -13 125 -13Z" transform="translate(198.71,108.00) scale(0.020000,-0.020000)" fill="#BAF14D"/>
    <path d="M69 0V660H231V0ZM186 0V130H593V0ZM186 274V391H542V274ZM186 531V660H590V531Z" transform="translate(208.61,108.00) scale(0.020000,-0.020000)" fill="#BAF14D"/>
    <path d="M186 -14Q142 -14 108.0 3.5Q74 21 55.0 54.5Q36 88 36 136Q36 181 53.5 210.5Q71 240 104.5 257.5Q138 275 185.0 286.5Q232 298 292 307Q321 312 340.5 316.5Q360 321 370.0 331.0Q380 341 380 360Q380 385 362.0 403.0Q344 421 304 421Q276 421 253.5 411.0Q231 401 215.0 382.0Q199 363 191 336L49 378Q62 420 85.5 451.0Q109 482 142.0 502.5Q175 523 217.5 532.5Q260 542 308 542Q388 542 438.5 516.5Q489 491 513.5 437.5Q538 384 538 300V219Q538 183 539.5 146.5Q541 110 543.5 73.5Q546 37 550 0H408Q404 23 400.0 55.5Q396 88 394 122H375Q361 84 334.5 52.5Q308 21 270.5 3.5Q233 -14 186 -14ZM259 100Q277 100 295.5 106.5Q314 113 331.0 124.5Q348 136 362.0 153.0Q376 170 383 190L381 269L403 264Q384 252 361.0 245.0Q338 238 314.5 234.0Q291 230 268.5 225.5Q246 221 228.5 214.0Q211 207 201.0 195.0Q191 183 191 162Q191 134 210.0 117.0Q229 100 259 100Z" transform="translate(221.45,108.00) scale(0.020000,-0.020000)" fill="#BAF14D"/>
    <path d="M62 0V245V528H194L197 349H217Q224 419 243.5 460.5Q263 502 299.5 521.0Q336 540 390 540Q398 540 408.0 539.5Q418 539 431 537L425 365Q409 373 390.5 375.5Q372 378 358 378Q319 378 290.5 363.0Q262 348 245.5 317.0Q229 286 224 239V0Z" transform="translate(233.55,108.00) scale(0.020000,-0.020000)" fill="#BAF14D"/>
    <path d="M62 0V318V528H192L194 373H214Q227 429 251.0 467.0Q275 505 312.0 523.5Q349 542 399 542Q492 542 540.5 477.0Q589 412 589 270V0H427V252Q427 334 403.5 371.5Q380 409 334 409Q296 409 271.5 386.0Q247 363 235.0 325.0Q223 287 223 240V0Z" transform="translate(242.67,108.00) scale(0.020000,-0.020000)" fill="#BAF14D"/>
    <path d="M125 -13Q73 -13 47.5 9.0Q22 31 22 77Q22 124 47.5 146.0Q73 168 125 168Q178 168 204.0 146.0Q230 124 230 77Q230 -13 125 -13Z" transform="translate(255.73,108.00) scale(0.020000,-0.020000)" fill="#BAF14D"/>

    <!-- QR code -->
    <rect x="93.0" y="113" width="114" height="114" rx="6" fill="white"/>
    <g transform="translate(100.0, 120) scale(3.4483)">
      <path d="M0,0h1v1h-1zM1,0h1v1h-1zM2,0h1v1h-1zM3,0h1v1h-1zM4,0h1v1h-1zM5,0h1v1h-1zM6,0h1v1h-1zM8,0h1v1h-1zM9,0h1v1h-1zM10,0h1v1h-1zM17,0h1v1h-1zM18,0h1v1h-1zM20,0h1v1h-1zM22,0h1v1h-1zM23,0h1v1h-1zM24,0h1v1h-1zM25,0h1v1h-1zM26,0h1v1h-1zM27,0h1v1h-1zM28,0h1v1h-1zM0,1h1v1h-1zM6,1h1v1h-1zM11,1h1v1h-1zM12,1h1v1h-1zM16,1h1v1h-1zM17,1h1v1h-1zM19,1h1v1h-1zM22,1h1v1h-1zM28,1h1v1h-1zM0,2h1v1h-1zM2,2h1v1h-1zM3,2h1v1h-1zM4,2h1v1h-1zM6,2h1v1h-1zM10,2h1v1h-1zM12,2h1v1h-1zM13,2h1v1h-1zM15,2h1v1h-1zM16,2h1v1h-1zM17,2h1v1h-1zM19,2h1v1h-1zM22,2h1v1h-1zM24,2h1v1h-1zM25,2h1v1h-1zM26,2h1v1h-1zM28,2h1v1h-1zM0,3h1v1h-1zM2,3h1v1h-1zM3,3h1v1h-1zM4,3h1v1h-1zM6,3h1v1h-1zM8,3h1v1h-1zM11,3h1v1h-1zM12,3h1v1h-1zM14,3h1v1h-1zM15,3h1v1h-1zM16,3h1v1h-1zM18,3h1v1h-1zM20,3h1v1h-1zM22,3h1v1h-1zM24,3h1v1h-1zM25,3h1v1h-1zM26,3h1v1h-1zM28,3h1v1h-1zM0,4h1v1h-1zM2,4h1v1h-1zM3,4h1v1h-1zM4,4h1v1h-1zM6,4h1v1h-1zM8,4h1v1h-1zM9,4h1v1h-1zM11,4h1v1h-1zM12,4h1v1h-1zM13,4h1v1h-1zM14,4h1v1h-1zM16,4h1v1h-1zM17,4h1v1h-1zM18,4h1v1h-1zM22,4h1v1h-1zM24,4h1v1h-1zM25,4h1v1h-1zM26,4h1v1h-1zM28,4h1v1h-1zM0,5h1v1h-1zM6,5h1v1h-1zM8,5h1v1h-1zM9,5h1v1h-1zM10,5h1v1h-1zM13,5h1v1h-1zM14,5h1v1h-1zM15,5h1v1h-1zM17,5h1v1h-1zM19,5h1v1h-1zM20,5h1v1h-1zM22,5h1v1h-1zM28,5h1v1h-1zM0,6h1v1h-1zM1,6h1v1h-1zM2,6h1v1h-1zM3,6h1v1h-1zM4,6h1v1h-1zM5,6h1v1h-1zM6,6h1v1h-1zM8,6h1v1h-1zM10,6h1v1h-1zM12,6h1v1h-1zM14,6h1v1h-1zM16,6h1v1h-1zM18,6h1v1h-1zM20,6h1v1h-1zM22,6h1v1h-1zM23,6h1v1h-1zM24,6h1v1h-1zM25,6h1v1h-1zM26,6h1v1h-1zM27,6h1v1h-1zM28,6h1v1h-1zM8,7h1v1h-1zM11,7h1v1h-1zM12,7h1v1h-1zM14,7h1v1h-1zM17,7h1v1h-1zM18,7h1v1h-1zM20,7h1v1h-1zM0,8h1v1h-1zM4,8h1v1h-1zM6,8h1v1h-1zM7,8h1v1h-1zM8,8h1v1h-1zM10,8h1v1h-1zM11,8h1v1h-1zM12,8h1v1h-1zM13,8h1v1h-1zM14,8h1v1h-1zM15,8h1v1h-1zM16,8h1v1h-1zM17,8h1v1h-1zM19,8h1v1h-1zM21,8h1v1h-1zM22,8h1v1h-1zM23,8h1v1h-1zM24,8h1v1h-1zM25,8h1v1h-1zM28,8h1v1h-1zM0,9h1v1h-1zM1,9h1v1h-1zM2,9h1v1h-1zM9,9h1v1h-1zM12,9h1v1h-1zM22,9h1v1h-1zM23,9h1v1h-1zM24,9h1v1h-1zM25,9h1v1h-1zM26,9h1v1h-1zM27,9h1v1h-1zM28,9h1v1h-1zM0,10h1v1h-1zM3,10h1v1h-1zM5,10h1v1h-1zM6,10h1v1h-1zM8,10h1v1h-1zM13,10h1v1h-1zM14,10h1v1h-1zM15,10h1v1h-1zM20,10h1v1h-1zM22,10h1v1h-1zM23,10h1v1h-1zM24,10h1v1h-1zM28,10h1v1h-1zM3,11h1v1h-1zM4,11h1v1h-1zM8,11h1v1h-1zM9,11h1v1h-1zM10,11h1v1h-1zM13,11h1v1h-1zM15,11h1v1h-1zM16,11h1v1h-1zM17,11h1v1h-1zM20,11h1v1h-1zM22,11h1v1h-1zM23,11h1v1h-1zM25,11h1v1h-1zM27,11h1v1h-1zM28,11h1v1h-1zM1,12h1v1h-1zM2,12h1v1h-1zM3,12h1v1h-1zM4,12h1v1h-1zM5,12h1v1h-1zM6,12h1v1h-1zM10,12h1v1h-1zM12,12h1v1h-1zM13,12h1v1h-1zM17,12h1v1h-1zM19,12h1v1h-1zM20,12h1v1h-1zM21,12h1v1h-1zM23,12h1v1h-1zM27,12h1v1h-1zM0,13h1v1h-1zM2,13h1v1h-1zM3,13h1v1h-1zM4,13h1v1h-1zM5,13h1v1h-1zM8,13h1v1h-1zM9,13h1v1h-1zM11,13h1v1h-1zM12,13h1v1h-1zM13,13h1v1h-1zM14,13h1v1h-1zM16,13h1v1h-1zM18,13h1v1h-1zM22,13h1v1h-1zM23,13h1v1h-1zM24,13h1v1h-1zM25,13h1v1h-1zM26,13h1v1h-1zM27,13h1v1h-1zM28,13h1v1h-1zM1,14h1v1h-1zM2,14h1v1h-1zM3,14h1v1h-1zM4,14h1v1h-1zM6,14h1v1h-1zM9,14h1v1h-1zM10,14h1v1h-1zM12,14h1v1h-1zM16,14h1v1h-1zM18,14h1v1h-1zM20,14h1v1h-1zM22,14h1v1h-1zM24,14h1v1h-1zM25,14h1v1h-1zM26,14h1v1h-1zM28,14h1v1h-1zM2,15h1v1h-1zM5,15h1v1h-1zM10,15h1v1h-1zM12,15h1v1h-1zM14,15h1v1h-1zM17,15h1v1h-1zM18,15h1v1h-1zM20,15h1v1h-1zM22,15h1v1h-1zM27,15h1v1h-1zM28,15h1v1h-1zM0,16h1v1h-1zM3,16h1v1h-1zM4,16h1v1h-1zM6,16h1v1h-1zM7,16h1v1h-1zM9,16h1v1h-1zM10,16h1v1h-1zM13,16h1v1h-1zM14,16h1v1h-1zM15,16h1v1h-1zM16,16h1v1h-1zM17,16h1v1h-1zM18,16h1v1h-1zM19,16h1v1h-1zM20,16h1v1h-1zM21,16h1v1h-1zM27,16h1v1h-1zM0,17h1v1h-1zM2,17h1v1h-1zM3,17h1v1h-1zM4,17h1v1h-1zM5,17h1v1h-1zM7,17h1v1h-1zM8,17h1v1h-1zM10,17h1v1h-1zM11,17h1v1h-1zM17,17h1v1h-1zM18,17h1v1h-1zM22,17h1v1h-1zM23,17h1v1h-1zM24,17h1v1h-1zM25,17h1v1h-1zM27,17h1v1h-1zM28,17h1v1h-1zM6,18h1v1h-1zM7,18h1v1h-1zM8,18h1v1h-1zM9,18h1v1h-1zM11,18h1v1h-1zM13,18h1v1h-1zM14,18h1v1h-1zM15,18h1v1h-1zM18,18h1v1h-1zM24,18h1v1h-1zM26,18h1v1h-1zM28,18h1v1h-1zM4,19h1v1h-1zM7,19h1v1h-1zM8,19h1v1h-1zM9,19h1v1h-1zM12,19h1v1h-1zM13,19h1v1h-1zM15,19h1v1h-1zM16,19h1v1h-1zM17,19h1v1h-1zM18,19h1v1h-1zM19,19h1v1h-1zM21,19h1v1h-1zM24,19h1v1h-1zM27,19h1v1h-1zM28,19h1v1h-1zM0,20h1v1h-1zM1,20h1v1h-1zM2,20h1v1h-1zM4,20h1v1h-1zM6,20h1v1h-1zM8,20h1v1h-1zM9,20h1v1h-1zM10,20h1v1h-1zM13,20h1v1h-1zM17,20h1v1h-1zM19,20h1v1h-1zM20,20h1v1h-1zM21,20h1v1h-1zM22,20h1v1h-1zM23,20h1v1h-1zM24,20h1v1h-1zM25,20h1v1h-1zM28,20h1v1h-1zM8,21h1v1h-1zM9,21h1v1h-1zM13,21h1v1h-1zM14,21h1v1h-1zM16,21h1v1h-1zM18,21h1v1h-1zM20,21h1v1h-1zM24,21h1v1h-1zM28,21h1v1h-1zM0,22h1v1h-1zM1,22h1v1h-1zM2,22h1v1h-1zM3,22h1v1h-1zM4,22h1v1h-1zM5,22h1v1h-1zM6,22h1v1h-1zM8,22h1v1h-1zM10,22h1v1h-1zM12,22h1v1h-1zM16,22h1v1h-1zM17,22h1v1h-1zM19,22h1v1h-1zM20,22h1v1h-1zM22,22h1v1h-1zM24,22h1v1h-1zM25,22h1v1h-1zM26,22h1v1h-1zM28,22h1v1h-1zM0,23h1v1h-1zM6,23h1v1h-1zM10,23h1v1h-1zM11,23h1v1h-1zM14,23h1v1h-1zM17,23h1v1h-1zM18,23h1v1h-1zM19,23h1v1h-1zM20,23h1v1h-1zM24,23h1v1h-1zM27,23h1v1h-1zM0,24h1v1h-1zM2,24h1v1h-1zM3,24h1v1h-1zM4,24h1v1h-1zM6,24h1v1h-1zM8,24h1v1h-1zM10,24h1v1h-1zM13,24h1v1h-1zM14,24h1v1h-1zM15,24h1v1h-1zM17,24h1v1h-1zM19,24h1v1h-1zM20,24h1v1h-1zM21,24h1v1h-1zM22,24h1v1h-1zM23,24h1v1h-1zM24,24h1v1h-1zM25,24h1v1h-1zM27,24h1v1h-1zM28,24h1v1h-1zM0,25h1v1h-1zM2,25h1v1h-1zM3,25h1v1h-1zM4,25h1v1h-1zM6,25h1v1h-1zM12,25h1v1h-1zM19,25h1v1h-1zM20,25h1v1h-1zM21,25h1v1h-1zM27,25h1v1h-1zM0,26h1v1h-1zM2,26h1v1h-1zM3,26h1v1h-1zM4,26h1v1h-1zM6,26h1v1h-1zM9,26h1v1h-1zM11,26h1v1h-1zM15,26h1v1h-1zM16,26h1v1h-1zM17,26h1v1h-1zM19,26h1v1h-1zM25,26h1v1h-1zM26,26h1v1h-1zM27,26h1v1h-1zM28,26h1v1h-1zM0,27h1v1h-1zM6,27h1v1h-1zM10,27h1v1h-1zM11,27h1v1h-1zM12,27h1v1h-1zM15,27h1v1h-1zM16,27h1v1h-1zM17,27h1v1h-1zM19,27h1v1h-1zM20,27h1v1h-1zM21,27h1v1h-1zM22,27h1v1h-1zM24,27h1v1h-1zM25,27h1v1h-1zM27,27h1v1h-1zM28,27h1v1h-1zM0,28h1v1h-1zM1,28h1v1h-1zM2,28h1v1h-1zM3,28h1v1h-1zM4,28h1v1h-1zM5,28h1v1h-1zM6,28h1v1h-1zM8,28h1v1h-1zM9,28h1v1h-1zM10,28h1v1h-1zM14,28h1v1h-1zM16,28h1v1h-1zM17,28h1v1h-1zM20,28h1v1h-1zM21,28h1v1h-1zM22,28h1v1h-1zM23,28h1v1h-1zM24,28h1v1h-1zM25,28h1v1h-1zM27,28h1v1h-1z" fill="#1A1F2E"/>
    </g>

    <!-- Scan text -->
    <path d="M657 -26Q496 -26 377.5 26.0Q259 78 192.0 171.5Q125 265 116 390H311Q319 306 368.0 251.5Q417 197 493.5 170.5Q570 144 657 144Q758 144 838.5 177.0Q919 210 966.0 270.0Q1013 330 1013 409Q1013 481 972.5 526.0Q932 571 865.0 600.0Q798 629 718 651L538 702Q358 753 258.0 848.0Q158 943 158 1091Q158 1217 226.0 1311.5Q294 1406 410.0 1458.0Q526 1510 670 1510Q817 1510 930.0 1458.0Q1043 1406 1108.5 1316.5Q1174 1227 1178 1114H992Q979 1223 888.0 1282.5Q797 1342 664 1342Q568 1342 495.5 1310.5Q423 1279 383.0 1224.5Q343 1170 343 1100Q343 1022 391.5 974.5Q440 927 506.5 900.5Q573 874 627 859L776 818Q836 802 908.5 774.0Q981 746 1047.0 699.5Q1113 653 1155.5 581.5Q1198 510 1198 406Q1198 284 1134.5 186.0Q1071 88 950.0 31.0Q829 -26 657 -26Z" transform="translate(72.33,240.00) scale(0.005127,-0.005127)" fill="#FFFFFF"/>
    <path d="M613 -24Q461 -24 346.5 48.0Q232 120 168.0 250.0Q104 380 104 552Q104 727 168.0 857.5Q232 988 346.5 1060.0Q461 1132 613 1132Q694 1132 766.0 1111.0Q838 1090 897.5 1050.5Q957 1011 1000.0 953.5Q1043 896 1066 823L893 774Q881 817 856.0 853.0Q831 889 795.5 915.5Q760 942 714.0 956.5Q668 971 613 971Q501 971 429.0 912.5Q357 854 322.0 759.0Q287 664 287 552Q287 442 322.0 347.5Q357 253 429.0 195.0Q501 137 613 137Q669 137 716.0 152.0Q763 167 799.5 194.5Q836 222 861.0 260.0Q886 298 898 343L1070 294Q1048 219 1004.5 160.5Q961 102 901.0 60.5Q841 19 768.0 -2.5Q695 -24 613 -24Z" transform="translate(79.06,240.00) scale(0.005127,-0.005127)" fill="#FFFFFF"/>
    <path d="M471 -26Q365 -26 278.5 14.0Q192 54 141.0 131.0Q90 208 90 318Q90 414 128.0 474.0Q166 534 229.5 568.5Q293 603 370.0 620.0Q447 637 525 647Q625 660 688.0 667.0Q751 674 781.5 691.0Q812 708 812 749V755Q812 825 786.0 873.5Q760 922 708.0 948.0Q656 974 578 974Q498 974 441.0 949.0Q384 924 348.5 886.5Q313 849 295 810L122 867Q165 969 238.0 1026.5Q311 1084 399.0 1108.0Q487 1132 573 1132Q629 1132 700.5 1118.5Q772 1105 838.5 1065.0Q905 1025 948.5 946.5Q992 868 992 737V0H815V152H803Q784 113 742.0 71.5Q700 30 633.0 2.0Q566 -26 471 -26ZM502 133Q602 133 671.0 172.0Q740 211 776.0 273.5Q812 336 812 404V559Q801 546 764.0 535.5Q727 525 679.5 517.0Q632 509 587.5 503.5Q543 498 517 495Q452 487 395.5 467.5Q339 448 305.0 410.5Q271 373 271 309Q271 251 301.0 212.0Q331 173 383.0 153.0Q435 133 502 133Z" transform="translate(85.06,240.00) scale(0.005127,-0.005127)" fill="#FFFFFF"/>
    <path d="M338 670V0H158V1118H331L332 847H307Q358 1002 452.5 1067.0Q547 1132 674 1132Q787 1132 872.0 1085.5Q957 1039 1004.5 945.5Q1052 852 1052 710V0H872V695Q872 824 804.5 897.0Q737 970 620 970Q540 970 476.0 935.0Q412 900 375.0 833.0Q338 766 338 670Z" transform="translate(90.96,240.00) scale(0.005127,-0.005127)" fill="#FFFFFF"/>
    <path d="M598 1118V964H20V1118ZM188 1384H368V290Q368 215 398.5 180.5Q429 146 500 146Q517 146 543.5 150.0Q570 154 592 158L629 6Q601 -4 565.5 -9.0Q530 -14 495 -14Q350 -14 269.0 62.5Q188 139 188 276Z" transform="translate(100.11,240.00) scale(0.005127,-0.005127)" fill="#FFFFFF"/>
    <path d="M613 -24Q461 -24 346.5 48.0Q232 120 168.0 250.0Q104 380 104 552Q104 727 168.0 857.5Q232 988 346.5 1060.0Q461 1132 613 1132Q766 1132 881.0 1060.0Q996 988 1060.0 857.5Q1124 727 1124 552Q1124 380 1060.0 250.0Q996 120 881.0 48.0Q766 -24 613 -24ZM613 137Q726 137 799.0 195.0Q872 253 907.0 347.5Q942 442 942 552Q942 663 907.0 758.5Q872 854 799.0 912.5Q726 971 613 971Q501 971 429.0 912.5Q357 854 322.0 759.0Q287 664 287 552Q287 442 322.0 347.5Q357 253 429.0 195.0Q501 137 613 137Z" transform="translate(103.55,240.00) scale(0.005127,-0.005127)" fill="#FFFFFF"/>
    <path d="M577 -24Q438 -24 331.0 47.0Q224 118 164.0 248.0Q104 378 104 556Q104 733 164.5 862.5Q225 992 332.0 1062.0Q439 1132 578 1132Q687 1132 751.0 1096.0Q815 1060 849.5 1014.5Q884 969 902 939H916V1490H1096V0H922V173H902Q884 142 848.5 95.5Q813 49 748.5 12.5Q684 -24 577 -24ZM604 137Q706 137 776.0 190.5Q846 244 882.0 339.0Q918 434 918 558Q918 682 882.5 774.5Q847 867 777.0 919.0Q707 971 604 971Q498 971 427.5 916.0Q357 861 322.0 767.5Q287 674 287 558Q287 441 322.5 345.5Q358 250 429.0 193.5Q500 137 604 137Z" transform="translate(112.80,240.00) scale(0.005127,-0.005127)" fill="#FFFFFF"/>
    <path d="M613 -24Q461 -24 346.5 48.0Q232 120 168.0 250.0Q104 380 104 552Q104 727 168.0 857.5Q232 988 346.5 1060.0Q461 1132 613 1132Q766 1132 881.0 1060.0Q996 988 1060.0 857.5Q1124 727 1124 552Q1124 380 1060.0 250.0Q996 120 881.0 48.0Q766 -24 613 -24ZM613 137Q726 137 799.0 195.0Q872 253 907.0 347.5Q942 442 942 552Q942 663 907.0 758.5Q872 854 799.0 912.5Q726 971 613 971Q501 971 429.0 912.5Q357 854 322.0 759.0Q287 664 287 552Q287 442 322.0 347.5Q357 253 429.0 195.0Q501 137 613 137Z" transform="translate(119.23,240.00) scale(0.005127,-0.005127)" fill="#FFFFFF"/>
    <path d="M409 0 70 1118H261L397 630Q425 530 457.0 403.5Q489 277 520 117H489Q519 270 550.0 397.0Q581 524 610 630L744 1118H936L1068 630Q1096 527 1126.5 400.5Q1157 274 1187 117H1155Q1187 272 1218.5 398.5Q1250 525 1279 630L1415 1118H1606L1267 0H1088L943 506Q921 583 900.0 663.0Q879 743 859.0 827.0Q839 911 818 998H858Q838 912 817.5 827.5Q797 743 776.0 662.0Q755 581 733 506L588 0Z" transform="translate(125.52,240.00) scale(0.005127,-0.005127)" fill="#FFFFFF"/>
    <path d="M338 670V0H158V1118H331L332 847H307Q358 1002 452.5 1067.0Q547 1132 674 1132Q787 1132 872.0 1085.5Q957 1039 1004.5 945.5Q1052 852 1052 710V0H872V695Q872 824 804.5 897.0Q737 970 620 970Q540 970 476.0 935.0Q412 900 375.0 833.0Q338 766 338 670Z" transform="translate(134.12,240.00) scale(0.005127,-0.005127)" fill="#FFFFFF"/>
    <path d="M338 1490V0H158V1490Z" transform="translate(140.32,240.00) scale(0.005127,-0.005127)" fill="#FFFFFF"/>
    <path d="M613 -24Q461 -24 346.5 48.0Q232 120 168.0 250.0Q104 380 104 552Q104 727 168.0 857.5Q232 988 346.5 1060.0Q461 1132 613 1132Q766 1132 881.0 1060.0Q996 988 1060.0 857.5Q1124 727 1124 552Q1124 380 1060.0 250.0Q996 120 881.0 48.0Q766 -24 613 -24ZM613 137Q726 137 799.0 195.0Q872 253 907.0 347.5Q942 442 942 552Q942 663 907.0 758.5Q872 854 799.0 912.5Q726 971 613 971Q501 971 429.0 912.5Q357 854 322.0 759.0Q287 664 287 552Q287 442 322.0 347.5Q357 253 429.0 195.0Q501 137 613 137Z" transform="translate(142.86,240.00) scale(0.005127,-0.005127)" fill="#FFFFFF"/>
    <path d="M471 -26Q365 -26 278.5 14.0Q192 54 141.0 131.0Q90 208 90 318Q90 414 128.0 474.0Q166 534 229.5 568.5Q293 603 370.0 620.0Q447 637 525 647Q625 660 688.0 667.0Q751 674 781.5 691.0Q812 708 812 749V755Q812 825 786.0 873.5Q760 922 708.0 948.0Q656 974 578 974Q498 974 441.0 949.0Q384 924 348.5 886.5Q313 849 295 810L122 867Q165 969 238.0 1026.5Q311 1084 399.0 1108.0Q487 1132 573 1132Q629 1132 700.5 1118.5Q772 1105 838.5 1065.0Q905 1025 948.5 946.5Q992 868 992 737V0H815V152H803Q784 113 742.0 71.5Q700 30 633.0 2.0Q566 -26 471 -26ZM502 133Q602 133 671.0 172.0Q740 211 776.0 273.5Q812 336 812 404V559Q801 546 764.0 535.5Q727 525 679.5 517.0Q632 509 587.5 503.5Q543 498 517 495Q452 487 395.5 467.5Q339 448 305.0 410.5Q271 373 271 309Q271 251 301.0 212.0Q331 173 383.0 153.0Q435 133 502 133Z" transform="translate(149.16,240.00) scale(0.005127,-0.005127)" fill="#FFFFFF"/>
    <path d="M577 -24Q438 -24 331.0 47.0Q224 118 164.0 248.0Q104 378 104 556Q104 733 164.5 862.5Q225 992 332.0 1062.0Q439 1132 578 1132Q687 1132 751.0 1096.0Q815 1060 849.5 1014.5Q884 969 902 939H916V1490H1096V0H922V173H902Q884 142 848.5 95.5Q813 49 748.5 12.5Q684 -24 577 -24ZM604 137Q706 137 776.0 190.5Q846 244 882.0 339.0Q918 434 918 558Q918 682 882.5 774.5Q847 867 777.0 919.0Q707 971 604 971Q498 971 427.5 916.0Q357 861 322.0 767.5Q287 674 287 558Q287 441 322.5 345.5Q358 250 429.0 193.5Q500 137 604 137Z" transform="translate(155.06,240.00) scale(0.005127,-0.005127)" fill="#FFFFFF"/>
    <path d="M598 1118V964H20V1118ZM188 1384H368V290Q368 215 398.5 180.5Q429 146 500 146Q517 146 543.5 150.0Q570 154 592 158L629 6Q601 -4 565.5 -9.0Q530 -14 495 -14Q350 -14 269.0 62.5Q188 139 188 276Z" transform="translate(164.44,240.00) scale(0.005127,-0.005127)" fill="#FFFFFF"/>
    <path d="M338 670V0H158V1490H338V847H307Q358 1002 452.5 1067.0Q547 1132 674 1132Q787 1132 872.5 1085.5Q958 1039 1005.5 945.5Q1053 852 1053 710V0H872V695Q872 824 804.5 897.0Q737 970 620 970Q540 970 476.0 935.0Q412 900 375.0 833.0Q338 766 338 670Z" transform="translate(167.87,240.00) scale(0.005127,-0.005127)" fill="#FFFFFF"/>
    <path d="M628 -24Q466 -24 348.5 48.0Q231 120 167.5 249.0Q104 378 104 550Q104 722 166.0 853.0Q228 984 341.5 1058.0Q455 1132 607 1132Q696 1132 782.5 1102.5Q869 1073 939.5 1007.5Q1010 942 1052.0 835.0Q1094 728 1094 573V498H226V650H997L913 594Q913 704 878.5 789.5Q844 875 776.0 923.5Q708 972 607 972Q506 972 434.0 922.5Q362 873 324.0 793.5Q286 714 286 623V522Q286 398 329.0 311.5Q372 225 449.5 180.5Q527 136 629 136Q695 136 749.0 155.0Q803 174 842.0 212.5Q881 251 902 308L1076 260Q1050 176 988.0 112.0Q926 48 834.5 12.0Q743 -24 628 -24Z" transform="translate(174.08,240.00) scale(0.005127,-0.005127)" fill="#FFFFFF"/>
    <path d="M657 -26Q496 -26 377.5 26.0Q259 78 192.0 171.5Q125 265 116 390H311Q319 306 368.0 251.5Q417 197 493.5 170.5Q570 144 657 144Q758 144 838.5 177.0Q919 210 966.0 270.0Q1013 330 1013 409Q1013 481 972.5 526.0Q932 571 865.0 600.0Q798 629 718 651L538 702Q358 753 258.0 848.0Q158 943 158 1091Q158 1217 226.0 1311.5Q294 1406 410.0 1458.0Q526 1510 670 1510Q817 1510 930.0 1458.0Q1043 1406 1108.5 1316.5Q1174 1227 1178 1114H992Q979 1223 888.0 1282.5Q797 1342 664 1342Q568 1342 495.5 1310.5Q423 1279 383.0 1224.5Q343 1170 343 1100Q343 1022 391.5 974.5Q440 927 506.5 900.5Q573 874 627 859L776 818Q836 802 908.5 774.0Q981 746 1047.0 699.5Q1113 653 1155.5 581.5Q1198 510 1198 406Q1198 284 1134.5 186.0Q1071 88 950.0 31.0Q829 -26 657 -26Z" transform="translate(183.16,240.00) scale(0.005127,-0.005127)" fill="#FFFFFF"/>
    <path d="M338 670V0H158V1490H338V847H307Q358 1002 452.5 1067.0Q547 1132 674 1132Q787 1132 872.5 1085.5Q958 1039 1005.5 945.5Q1053 852 1053 710V0H872V695Q872 824 804.5 897.0Q737 970 620 970Q540 970 476.0 935.0Q412 900 375.0 833.0Q338 766 338 670Z" transform="translate(189.89,240.00) scale(0.005127,-0.005127)" fill="#FFFFFF"/>
    <path d="M158 0V1118H338V0ZM249 1301Q198 1301 161.0 1336.0Q124 1371 124 1420Q124 1470 161.0 1504.5Q198 1539 249 1539Q301 1539 338.0 1504.5Q375 1470 375 1420Q375 1371 338.0 1336.0Q301 1301 249 1301Z" transform="translate(196.10,240.00) scale(0.005127,-0.005127)" fill="#FFFFFF"/>
    <path d="M678 1118V964H20V1118ZM240 0V1267Q240 1364 285.5 1429.0Q331 1494 404.0 1527.0Q477 1560 558 1560Q622 1560 664.0 1549.5Q706 1539 726 1530L676 1376Q662 1381 639.5 1387.0Q617 1393 579 1393Q496 1393 458.0 1350.5Q420 1308 420 1227V0Z" transform="translate(198.64,240.00) scale(0.005127,-0.005127)" fill="#FFFFFF"/>
    <path d="M598 1118V964H20V1118ZM188 1384H368V290Q368 215 398.5 180.5Q429 146 500 146Q517 146 543.5 150.0Q570 154 592 158L629 6Q601 -4 565.5 -9.0Q530 -14 495 -14Q350 -14 269.0 62.5Q188 139 188 276Z" transform="translate(202.53,240.00) scale(0.005127,-0.005127)" fill="#FFFFFF"/>
    <path d="M471 -26Q365 -26 278.5 14.0Q192 54 141.0 131.0Q90 208 90 318Q90 414 128.0 474.0Q166 534 229.5 568.5Q293 603 370.0 620.0Q447 637 525 647Q625 660 688.0 667.0Q751 674 781.5 691.0Q812 708 812 749V755Q812 825 786.0 873.5Q760 922 708.0 948.0Q656 974 578 974Q498 974 441.0 949.0Q384 924 348.5 886.5Q313 849 295 810L122 867Q165 969 238.0 1026.5Q311 1084 399.0 1108.0Q487 1132 573 1132Q629 1132 700.5 1118.5Q772 1105 838.5 1065.0Q905 1025 948.5 946.5Q992 868 992 737V0H815V152H803Q784 113 742.0 71.5Q700 30 633.0 2.0Q566 -26 471 -26ZM502 133Q602 133 671.0 172.0Q740 211 776.0 273.5Q812 336 812 404V559Q801 546 764.0 535.5Q727 525 679.5 517.0Q632 509 587.5 503.5Q543 498 517 495Q452 487 395.5 467.5Q339 448 305.0 410.5Q271 373 271 309Q271 251 301.0 212.0Q331 173 383.0 153.0Q435 133 502 133Z" transform="translate(208.92,240.00) scale(0.005127,-0.005127)" fill="#FFFFFF"/>
    <path d="M158 -418V1118H332V939H352Q371 969 405.0 1014.5Q439 1060 503.0 1096.0Q567 1132 676 1132Q816 1132 922.5 1062.0Q1029 992 1089.5 862.5Q1150 733 1150 556Q1150 378 1090.0 248.0Q1030 118 923.5 47.0Q817 -24 677 -24Q571 -24 506.0 12.5Q441 49 406.0 95.5Q371 142 352 173H338V-418ZM650 137Q755 137 825.5 193.5Q896 250 931.5 345.5Q967 441 967 558Q967 674 932.0 767.5Q897 861 826.5 916.0Q756 971 650 971Q547 971 477.0 919.0Q407 867 371.5 774.5Q336 682 336 558Q336 434 372.0 339.0Q408 244 478.5 190.5Q549 137 650 137Z" transform="translate(214.81,240.00) scale(0.005127,-0.005127)" fill="#FFFFFF"/>
    <path d="M158 -418V1118H332V939H352Q371 969 405.0 1014.5Q439 1060 503.0 1096.0Q567 1132 676 1132Q816 1132 922.5 1062.0Q1029 992 1089.5 862.5Q1150 733 1150 556Q1150 378 1090.0 248.0Q1030 118 923.5 47.0Q817 -24 677 -24Q571 -24 506.0 12.5Q441 49 406.0 95.5Q371 142 352 173H338V-418ZM650 137Q755 137 825.5 193.5Q896 250 931.5 345.5Q967 441 967 558Q967 674 932.0 767.5Q897 861 826.5 916.0Q756 971 650 971Q547 971 477.0 919.0Q407 867 371.5 774.5Q336 682 336 558Q336 434 372.0 339.0Q408 244 478.5 190.5Q549 137 650 137Z" transform="translate(221.24,240.00) scale(0.005127,-0.005127)" fill="#FFFFFF"/>

    <!-- URL -->
    <path d="M615 -442Q486 -442 391.0 -409.0Q296 -376 234.5 -321.0Q173 -266 141 -199L325 -112Q345 -144 378.5 -179.5Q412 -215 469.0 -240.0Q526 -265 615 -265Q743 -265 822.5 -204.5Q902 -144 902 -15V203H883Q863 166 827.5 123.0Q792 80 728.5 48.5Q665 17 563 17Q431 17 325.5 79.0Q220 141 158.0 263.0Q96 385 96 563Q96 741 157.5 868.5Q219 996 325.5 1064.0Q432 1132 566 1132Q669 1132 733.5 1098.0Q798 1064 834.5 1017.5Q871 971 890 936H906V1118H1121V-16Q1121 -163 1054.5 -257.5Q988 -352 873.5 -397.0Q759 -442 615 -442ZM614 200Q708 200 772.5 243.5Q837 287 870.0 369.5Q903 452 903 566Q903 679 870.0 764.0Q837 849 772.5 897.0Q708 945 614 945Q517 945 452.0 894.5Q387 844 354.0 758.5Q321 673 321 566Q321 457 354.0 374.5Q387 292 452.5 246.0Q518 200 614 200Z" transform="translate(96.54,248.00) scale(0.004395,-0.004395)" fill="#51b789"/>
    <path d="M618 -23Q461 -23 343.5 49.0Q226 121 161.0 251.0Q96 381 96 553Q96 727 161.0 857.5Q226 988 343.5 1060.0Q461 1132 618 1132Q776 1132 893.5 1060.0Q1011 988 1076.0 857.5Q1141 727 1141 553Q1141 381 1076.0 251.0Q1011 121 893.5 49.0Q776 -23 618 -23ZM618 163Q720 163 786.5 216.5Q853 270 885.5 358.5Q918 447 918 553Q918 660 885.5 749.5Q853 839 786.5 892.5Q720 946 618 946Q517 946 451.0 892.5Q385 839 352.5 750.0Q320 661 320 553Q320 447 352.5 358.5Q385 270 451.0 216.5Q517 163 618 163Z" transform="translate(102.32,248.00) scale(0.004395,-0.004395)" fill="#51b789"/>
    <path d="M615 -442Q486 -442 391.0 -409.0Q296 -376 234.5 -321.0Q173 -266 141 -199L325 -112Q345 -144 378.5 -179.5Q412 -215 469.0 -240.0Q526 -265 615 -265Q743 -265 822.5 -204.5Q902 -144 902 -15V203H883Q863 166 827.5 123.0Q792 80 728.5 48.5Q665 17 563 17Q431 17 325.5 79.0Q220 141 158.0 263.0Q96 385 96 563Q96 741 157.5 868.5Q219 996 325.5 1064.0Q432 1132 566 1132Q669 1132 733.5 1098.0Q798 1064 834.5 1017.5Q871 971 890 936H906V1118H1121V-16Q1121 -163 1054.5 -257.5Q988 -352 873.5 -397.0Q759 -442 615 -442ZM614 200Q708 200 772.5 243.5Q837 287 870.0 369.5Q903 452 903 566Q903 679 870.0 764.0Q837 849 772.5 897.0Q708 945 614 945Q517 945 452.0 894.5Q387 844 354.0 758.5Q321 673 321 566Q321 457 354.0 374.5Q387 292 452.5 246.0Q518 200 614 200Z" transform="translate(107.95,248.00) scale(0.004395,-0.004395)" fill="#51b789"/>
    <path d="M148 0V1118H361V938H373Q404 1030 481.0 1082.0Q558 1134 656 1134Q677 1134 704.0 1132.5Q731 1131 749 1128V918Q737 922 703.0 926.0Q669 930 634 930Q558 930 497.0 898.0Q436 866 402.0 809.5Q368 753 368 679V0Z" transform="translate(113.73,248.00) scale(0.004395,-0.004395)" fill="#51b789"/>
    <path d="M630 -23Q465 -23 345.0 48.0Q225 119 160.5 248.0Q96 377 96 551Q96 723 159.5 854.0Q223 985 339.0 1058.5Q455 1132 611 1132Q707 1132 796.0 1100.5Q885 1069 956.0 1002.0Q1027 935 1068.5 828.5Q1110 722 1110 570V492H219V656H997L894 602Q894 705 862.0 783.5Q830 862 767.5 906.0Q705 950 611 950Q518 950 452.0 905.0Q386 860 351.5 786.5Q317 713 317 626V514Q317 399 356.5 319.5Q396 240 467.0 199.5Q538 159 632 159Q694 159 744.0 176.5Q794 194 830.5 229.5Q867 265 886 317L1093 268Q1066 182 1002.5 116.0Q939 50 844.5 13.5Q750 -23 630 -23Z" transform="translate(117.41,248.00) scale(0.004395,-0.004395)" fill="#51b789"/>
    <path d="M630 -23Q465 -23 345.0 48.0Q225 119 160.5 248.0Q96 377 96 551Q96 723 159.5 854.0Q223 985 339.0 1058.5Q455 1132 611 1132Q707 1132 796.0 1100.5Q885 1069 956.0 1002.0Q1027 935 1068.5 828.5Q1110 722 1110 570V492H219V656H997L894 602Q894 705 862.0 783.5Q830 862 767.5 906.0Q705 950 611 950Q518 950 452.0 905.0Q386 860 351.5 786.5Q317 713 317 626V514Q317 399 356.5 319.5Q396 240 467.0 199.5Q538 159 632 159Q694 159 744.0 176.5Q794 194 830.5 229.5Q867 265 886 317L1093 268Q1066 182 1002.5 116.0Q939 50 844.5 13.5Q750 -23 630 -23Z" transform="translate(122.90,248.00) scale(0.004395,-0.004395)" fill="#51b789"/>
    <path d="M368 662V0H148V1118H358L360 844H337Q386 994 479.0 1063.0Q572 1132 704 1132Q818 1132 903.0 1084.0Q988 1036 1036.0 942.5Q1084 849 1084 710V0H864V683Q864 804 801.0 872.0Q738 940 628 940Q554 940 495.0 907.5Q436 875 402.0 813.0Q368 751 368 662Z" transform="translate(128.38,248.00) scale(0.004395,-0.004395)" fill="#51b789"/>
    <path d="M549 -23Q428 -23 333.5 12.0Q239 47 178.5 115.5Q118 184 98 283L305 326Q328 239 391.0 197.0Q454 155 551 155Q657 155 720.0 199.5Q783 244 783 306Q783 360 744.5 395.0Q706 430 626 447L438 490Q282 525 206.0 602.0Q130 679 130 799Q130 899 186.0 974.0Q242 1049 339.0 1090.5Q436 1132 563 1132Q684 1132 770.0 1097.0Q856 1062 909.5 999.0Q963 936 986 853L789 810Q768 869 716.0 913.5Q664 958 565 958Q474 958 413.0 917.0Q352 876 352 813Q352 757 392.5 722.5Q433 688 525 667L705 627Q860 592 935.0 517.0Q1010 442 1010 325Q1010 223 951.5 144.5Q893 66 789.5 21.5Q686 -23 549 -23Z" transform="translate(134.00,248.00) scale(0.004395,-0.004395)" fill="#51b789"/>
    <path d="M626 1118V939H20V1118ZM183 1384H403V302Q403 235 431.5 203.5Q460 172 525 172Q542 172 570.0 176.0Q598 180 618 184L657 8Q622 -4 582.0 -9.5Q542 -15 503 -15Q351 -15 267.0 63.5Q183 142 183 284Z" transform="translate(139.05,248.00) scale(0.004395,-0.004395)" fill="#51b789"/>
    <path d="M148 0V1118H361V938H373Q404 1030 481.0 1082.0Q558 1134 656 1134Q677 1134 704.0 1132.5Q731 1131 749 1128V918Q737 922 703.0 926.0Q669 930 634 930Q558 930 497.0 898.0Q436 866 402.0 809.5Q368 753 368 679V0Z" transform="translate(142.31,248.00) scale(0.004395,-0.004395)" fill="#51b789"/>
    <path d="M630 -23Q465 -23 345.0 48.0Q225 119 160.5 248.0Q96 377 96 551Q96 723 159.5 854.0Q223 985 339.0 1058.5Q455 1132 611 1132Q707 1132 796.0 1100.5Q885 1069 956.0 1002.0Q1027 935 1068.5 828.5Q1110 722 1110 570V492H219V656H997L894 602Q894 705 862.0 783.5Q830 862 767.5 906.0Q705 950 611 950Q518 950 452.0 905.0Q386 860 351.5 786.5Q317 713 317 626V514Q317 399 356.5 319.5Q396 240 467.0 199.5Q538 159 632 159Q694 159 744.0 176.5Q794 194 830.5 229.5Q867 265 886 317L1093 268Q1066 182 1002.5 116.0Q939 50 844.5 13.5Q750 -23 630 -23Z" transform="translate(145.99,248.00) scale(0.004395,-0.004395)" fill="#51b789"/>
    <path d="M630 -23Q465 -23 345.0 48.0Q225 119 160.5 248.0Q96 377 96 551Q96 723 159.5 854.0Q223 985 339.0 1058.5Q455 1132 611 1132Q707 1132 796.0 1100.5Q885 1069 956.0 1002.0Q1027 935 1068.5 828.5Q1110 722 1110 570V492H219V656H997L894 602Q894 705 862.0 783.5Q830 862 767.5 906.0Q705 950 611 950Q518 950 452.0 905.0Q386 860 351.5 786.5Q317 713 317 626V514Q317 399 356.5 319.5Q396 240 467.0 199.5Q538 159 632 159Q694 159 744.0 176.5Q794 194 830.5 229.5Q867 265 886 317L1093 268Q1066 182 1002.5 116.0Q939 50 844.5 13.5Q750 -23 630 -23Z" transform="translate(151.48,248.00) scale(0.004395,-0.004395)" fill="#51b789"/>
    <path d="M626 1118V939H20V1118ZM183 1384H403V302Q403 235 431.5 203.5Q460 172 525 172Q542 172 570.0 176.0Q598 180 618 184L657 8Q622 -4 582.0 -9.5Q542 -15 503 -15Q351 -15 267.0 63.5Q183 142 183 284Z" transform="translate(156.96,248.00) scale(0.004395,-0.004395)" fill="#51b789"/>
    <path d="M549 -23Q428 -23 333.5 12.0Q239 47 178.5 115.5Q118 184 98 283L305 326Q328 239 391.0 197.0Q454 155 551 155Q657 155 720.0 199.5Q783 244 783 306Q783 360 744.5 395.0Q706 430 626 447L438 490Q282 525 206.0 602.0Q130 679 130 799Q130 899 186.0 974.0Q242 1049 339.0 1090.5Q436 1132 563 1132Q684 1132 770.0 1097.0Q856 1062 909.5 999.0Q963 936 986 853L789 810Q768 869 716.0 913.5Q664 958 565 958Q474 958 413.0 917.0Q352 876 352 813Q352 757 392.5 722.5Q433 688 525 667L705 627Q860 592 935.0 517.0Q1010 442 1010 325Q1010 223 951.5 144.5Q893 66 789.5 21.5Q686 -23 549 -23Z" transform="translate(160.23,248.00) scale(0.004395,-0.004395)" fill="#51b789"/>
    <path d="M311 -15Q249 -15 206.0 28.0Q163 71 163 132Q163 194 206.0 236.5Q249 279 311 279Q372 279 415.0 236.5Q458 194 458 132Q458 71 415.0 28.0Q372 -15 311 -15Z" transform="translate(165.27,248.00) scale(0.004395,-0.004395)" fill="#51b789"/>
    <path d="M618 -23Q461 -23 343.5 49.0Q226 121 161.0 251.0Q96 381 96 553Q96 727 161.0 857.5Q226 988 343.5 1060.0Q461 1132 618 1132Q776 1132 893.5 1060.0Q1011 988 1076.0 857.5Q1141 727 1141 553Q1141 381 1076.0 251.0Q1011 121 893.5 49.0Q776 -23 618 -23ZM618 163Q720 163 786.5 216.5Q853 270 885.5 358.5Q918 447 918 553Q918 660 885.5 749.5Q853 839 786.5 892.5Q720 946 618 946Q517 946 451.0 892.5Q385 839 352.5 750.0Q320 661 320 553Q320 447 352.5 358.5Q385 270 451.0 216.5Q517 163 618 163Z" transform="translate(168.20,248.00) scale(0.004395,-0.004395)" fill="#51b789"/>
    <path d="M148 0V1118H361V938H373Q404 1030 481.0 1082.0Q558 1134 656 1134Q677 1134 704.0 1132.5Q731 1131 749 1128V918Q737 922 703.0 926.0Q669 930 634 930Q558 930 497.0 898.0Q436 866 402.0 809.5Q368 753 368 679V0Z" transform="translate(173.84,248.00) scale(0.004395,-0.004395)" fill="#51b789"/>
    <path d="M615 -442Q486 -442 391.0 -409.0Q296 -376 234.5 -321.0Q173 -266 141 -199L325 -112Q345 -144 378.5 -179.5Q412 -215 469.0 -240.0Q526 -265 615 -265Q743 -265 822.5 -204.5Q902 -144 902 -15V203H883Q863 166 827.5 123.0Q792 80 728.5 48.5Q665 17 563 17Q431 17 325.5 79.0Q220 141 158.0 263.0Q96 385 96 563Q96 741 157.5 868.5Q219 996 325.5 1064.0Q432 1132 566 1132Q669 1132 733.5 1098.0Q798 1064 834.5 1017.5Q871 971 890 936H906V1118H1121V-16Q1121 -163 1054.5 -257.5Q988 -352 873.5 -397.0Q759 -442 615 -442ZM614 200Q708 200 772.5 243.5Q837 287 870.0 369.5Q903 452 903 566Q903 679 870.0 764.0Q837 849 772.5 897.0Q708 945 614 945Q517 945 452.0 894.5Q387 844 354.0 758.5Q321 673 321 566Q321 457 354.0 374.5Q387 292 452.5 246.0Q518 200 614 200Z" transform="translate(177.52,248.00) scale(0.004395,-0.004395)" fill="#51b789"/>
    <path d="M717 1560 237 -224H40L520 1560Z" transform="translate(183.29,248.00) scale(0.004395,-0.004395)" fill="#51b789"/>
    <path d="M461 -25Q355 -25 269.0 14.5Q183 54 133.0 130.0Q83 206 83 316Q83 411 119.5 472.0Q156 533 218.5 569.0Q281 605 357.5 623.0Q434 641 513 650Q612 662 674.0 669.5Q736 677 765.5 694.5Q795 712 795 751V757Q795 820 771.0 863.0Q747 906 699.5 929.5Q652 953 581 953Q508 953 455.5 930.5Q403 908 370.5 873.0Q338 838 322 800L115 854Q153 954 224.0 1015.0Q295 1076 387.0 1104.0Q479 1132 577 1132Q645 1132 721.0 1116.0Q797 1100 864.0 1058.0Q931 1016 973.0 940.0Q1015 864 1015 742V0H802V153H791Q769 110 726.0 69.0Q683 28 617.5 1.5Q552 -25 461 -25ZM510 152Q600 152 664.0 187.0Q728 222 762.0 280.0Q796 338 796 403V546Q784 534 750.5 524.5Q717 515 674.0 507.5Q631 500 591.0 495.0Q551 490 525 487Q463 479 411.5 460.0Q360 441 329.5 406.0Q299 371 299 313Q299 260 326.5 224.0Q354 188 401.0 170.0Q448 152 510 152Z" transform="translate(186.82,248.00) scale(0.004395,-0.004395)" fill="#51b789"/>
    <path d="M148 -418V1118H362V936H380Q400 971 435.5 1017.0Q471 1063 534.5 1097.5Q598 1132 703 1132Q837 1132 942.5 1064.0Q1048 996 1109.0 867.0Q1170 738 1170 556Q1170 376 1110.0 246.5Q1050 117 944.5 47.5Q839 -22 703 -22Q602 -22 537.5 12.5Q473 47 436.5 93.0Q400 139 380 175H368V-418ZM654 165Q750 165 815.0 217.0Q880 269 912.5 358.0Q945 447 945 558Q945 668 912.5 755.5Q880 843 815.5 894.0Q751 945 654 945Q560 945 495.0 896.5Q430 848 397.0 761.5Q364 675 364 558Q364 442 397.5 353.5Q431 265 496.0 215.0Q561 165 654 165Z" transform="translate(192.13,248.00) scale(0.004395,-0.004395)" fill="#51b789"/>
    <path d="M148 -418V1118H362V936H380Q400 971 435.5 1017.0Q471 1063 534.5 1097.5Q598 1132 703 1132Q837 1132 942.5 1064.0Q1048 996 1109.0 867.0Q1170 738 1170 556Q1170 376 1110.0 246.5Q1050 117 944.5 47.5Q839 -22 703 -22Q602 -22 537.5 12.5Q473 47 436.5 93.0Q400 139 380 175H368V-418ZM654 165Q750 165 815.0 217.0Q880 269 912.5 358.0Q945 447 945 558Q945 668 912.5 755.5Q880 843 815.5 894.0Q751 945 654 945Q560 945 495.0 896.5Q430 848 397.0 761.5Q364 675 364 558Q364 442 397.5 353.5Q431 265 496.0 215.0Q561 165 654 165Z" transform="translate(197.90,248.00) scale(0.004395,-0.004395)" fill="#51b789"/>

    <!-- Divider -->
    <line x1="55" y1="264" x2="245" y2="264" stroke="#51b789" stroke-width="0.5" opacity="0.4"/>

    <!-- GSI wordmark -->
    <path d="M795 -20Q586 -20 428.5 72.5Q271 165 182.5 336.5Q94 508 94 743Q94 985 186.0 1156.5Q278 1328 435.0 1419.0Q592 1510 788 1510Q914 1510 1022.5 1473.5Q1131 1437 1215.5 1370.0Q1300 1303 1353.5 1211.5Q1407 1120 1423 1009H1113Q1097 1063 1068.5 1105.5Q1040 1148 999.5 1178.0Q959 1208 907.0 1223.5Q855 1239 793 1239Q678 1239 590.0 1181.5Q502 1124 453.0 1014.0Q404 904 404 746Q404 588 452.5 477.5Q501 367 589.0 309.0Q677 251 797 251Q905 251 982.0 290.0Q1059 329 1100.5 401.5Q1142 474 1142 571L1206 562H818V794H1438V608Q1438 412 1355.0 271.5Q1272 131 1127.0 55.5Q982 -20 795 -20Z" transform="translate(100.58,276.00) scale(0.004395,-0.004395)" fill="#51b789"/>
    <path d="M128 0V1118H418V923H430Q461 1027 533.5 1080.0Q606 1133 700 1133Q723 1133 750.0 1130.5Q777 1128 797 1123V855Q777 862 739.0 866.0Q701 870 667 870Q599 870 544.0 840.5Q489 811 458.5 758.5Q428 706 428 636V0Z" transform="translate(107.33,276.00) scale(0.004395,-0.004395)" fill="#51b789"/>
    <path d="M633 -22Q462 -22 338.0 48.0Q214 118 147.5 247.0Q81 376 81 553Q81 726 147.0 856.0Q213 986 334.0 1059.0Q455 1132 618 1132Q728 1132 823.0 1097.0Q918 1062 990.0 991.5Q1062 921 1102.5 815.0Q1143 709 1143 565V481H204V669H996L856 619Q856 706 829.5 770.5Q803 835 750.5 870.5Q698 906 621 906Q543 906 488.5 870.0Q434 834 406.0 772.5Q378 711 378 632V499Q378 402 410.5 336.0Q443 270 501.5 237.0Q560 204 638 204Q691 204 734.0 219.0Q777 234 807.5 263.5Q838 293 854 336L1126 285Q1099 193 1032.0 123.5Q965 54 864.5 16.0Q764 -22 633 -22Z" transform="translate(111.00,276.00) scale(0.004395,-0.004395)" fill="#51b789"/>
    <path d="M633 -22Q462 -22 338.0 48.0Q214 118 147.5 247.0Q81 376 81 553Q81 726 147.0 856.0Q213 986 334.0 1059.0Q455 1132 618 1132Q728 1132 823.0 1097.0Q918 1062 990.0 991.5Q1062 921 1102.5 815.0Q1143 709 1143 565V481H204V669H996L856 619Q856 706 829.5 770.5Q803 835 750.5 870.5Q698 906 621 906Q543 906 488.5 870.0Q434 834 406.0 772.5Q378 711 378 632V499Q378 402 410.5 336.0Q443 270 501.5 237.0Q560 204 638 204Q691 204 734.0 219.0Q777 234 807.5 263.5Q838 293 854 336L1126 285Q1099 193 1032.0 123.5Q965 54 864.5 16.0Q764 -22 633 -22Z" transform="translate(116.36,276.00) scale(0.004395,-0.004395)" fill="#51b789"/>
    <path d="M428 647V0H128V1118H411L416 839H398Q442 979 531.5 1055.5Q621 1132 763 1132Q879 1132 965.5 1081.5Q1052 1031 1099.5 936.5Q1147 842 1147 711V0H847V659Q847 763 793.5 822.0Q740 881 645 881Q582 881 532.5 853.5Q483 826 455.5 774.0Q428 722 428 647Z" transform="translate(121.72,276.00) scale(0.004395,-0.004395)" fill="#51b789"/>
    <path d="M681 -22Q502 -22 369.5 33.0Q237 88 163.0 196.0Q89 304 85 462H382Q388 387 427.0 336.5Q466 286 531.0 261.0Q596 236 678 236Q760 236 820.5 259.5Q881 283 915.0 326.0Q949 369 949 426Q949 477 918.5 511.5Q888 546 831.0 571.0Q774 596 692 615L528 656Q339 702 232.0 800.5Q125 899 125 1061Q125 1196 197.5 1297.0Q270 1398 396.5 1454.0Q523 1510 685 1510Q850 1510 973.0 1453.5Q1096 1397 1165.0 1296.5Q1234 1196 1236 1065H941Q933 1155 864.5 1204.0Q796 1253 682 1253Q605 1253 550.0 1231.0Q495 1209 466.5 1170.0Q438 1131 438 1081Q438 1026 471.0 989.5Q504 953 559.0 930.5Q614 908 676 893L811 860Q905 839 986.0 803.0Q1067 767 1128.0 714.5Q1189 662 1222.5 590.0Q1256 518 1256 424Q1256 289 1188.0 188.5Q1120 88 991.0 33.0Q862 -22 681 -22Z" transform="translate(129.46,276.00) scale(0.004395,-0.004395)" fill="#51b789"/>
    <path d="M683 1118V889H20V1118ZM174 1384H474V327Q474 274 497.5 248.5Q521 223 576 223Q593 223 624.0 227.5Q655 232 671 236L714 11Q664 -4 614.5 -10.0Q565 -16 520 -16Q352 -16 263.0 66.0Q174 148 174 301Z" transform="translate(135.35,276.00) scale(0.004395,-0.004395)" fill="#51b789"/>
    <path d="M128 0V1118H418V923H430Q461 1027 533.5 1080.0Q606 1133 700 1133Q723 1133 750.0 1130.5Q777 1128 797 1123V855Q777 862 739.0 866.0Q701 870 667 870Q599 870 544.0 840.5Q489 811 458.5 758.5Q428 706 428 636V0Z" transform="translate(138.64,276.00) scale(0.004395,-0.004395)" fill="#51b789"/>
    <path d="M633 -22Q462 -22 338.0 48.0Q214 118 147.5 247.0Q81 376 81 553Q81 726 147.0 856.0Q213 986 334.0 1059.0Q455 1132 618 1132Q728 1132 823.0 1097.0Q918 1062 990.0 991.5Q1062 921 1102.5 815.0Q1143 709 1143 565V481H204V669H996L856 619Q856 706 829.5 770.5Q803 835 750.5 870.5Q698 906 621 906Q543 906 488.5 870.0Q434 834 406.0 772.5Q378 711 378 632V499Q378 402 410.5 336.0Q443 270 501.5 237.0Q560 204 638 204Q691 204 734.0 219.0Q777 234 807.5 263.5Q838 293 854 336L1126 285Q1099 193 1032.0 123.5Q965 54 864.5 16.0Q764 -22 633 -22Z" transform="translate(142.31,276.00) scale(0.004395,-0.004395)" fill="#51b789"/>
    <path d="M633 -22Q462 -22 338.0 48.0Q214 118 147.5 247.0Q81 376 81 553Q81 726 147.0 856.0Q213 986 334.0 1059.0Q455 1132 618 1132Q728 1132 823.0 1097.0Q918 1062 990.0 991.5Q1062 921 1102.5 815.0Q1143 709 1143 565V481H204V669H996L856 619Q856 706 829.5 770.5Q803 835 750.5 870.5Q698 906 621 906Q543 906 488.5 870.0Q434 834 406.0 772.5Q378 711 378 632V499Q378 402 410.5 336.0Q443 270 501.5 237.0Q560 204 638 204Q691 204 734.0 219.0Q777 234 807.5 263.5Q838 293 854 336L1126 285Q1099 193 1032.0 123.5Q965 54 864.5 16.0Q764 -22 633 -22Z" transform="translate(147.67,276.00) scale(0.004395,-0.004395)" fill="#51b789"/>
    <path d="M683 1118V889H20V1118ZM174 1384H474V327Q474 274 497.5 248.5Q521 223 576 223Q593 223 624.0 227.5Q655 232 671 236L714 11Q664 -4 614.5 -10.0Q565 -16 520 -16Q352 -16 263.0 66.0Q174 148 174 301Z" transform="translate(153.03,276.00) scale(0.004395,-0.004395)" fill="#51b789"/>
    <path d="M572 -22Q437 -22 333.0 16.5Q229 55 163.0 128.5Q97 202 78 306L357 354Q379 276 434.0 237.0Q489 198 581 198Q667 198 716.5 230.5Q766 263 766 313Q766 357 730.5 385.0Q695 413 622 428L429 468Q267 501 187.0 580.5Q107 660 107 785Q107 893 166.0 970.5Q225 1048 330.0 1090.0Q435 1132 577 1132Q709 1132 806.0 1095.5Q903 1059 963.0 992.0Q1023 925 1043 834L777 787Q760 844 711.5 880.5Q663 917 581 917Q507 917 457.0 886.0Q407 855 407 803Q407 761 439.5 732.0Q472 703 551 687L752 647Q914 614 993.0 539.5Q1072 465 1072 345Q1072 235 1008.0 152.5Q944 70 831.5 24.0Q719 -22 572 -22Z" transform="translate(156.33,276.00) scale(0.004395,-0.004395)" fill="#51b789"/>
    <path d="M370 1490V0H180V1490Z" transform="translate(163.90,276.00) scale(0.004395,-0.004395)" fill="#FFFFFF"/>
    <path d="M338 670V0H158V1118H331L332 847H307Q358 1002 452.5 1067.0Q547 1132 674 1132Q787 1132 872.0 1085.5Q957 1039 1004.5 945.5Q1052 852 1052 710V0H872V695Q872 824 804.5 897.0Q737 970 620 970Q540 970 476.0 935.0Q412 900 375.0 833.0Q338 766 338 670Z" transform="translate(166.32,276.00) scale(0.004395,-0.004395)" fill="#FFFFFF"/>
    <path d="M158 0V1118H338V0ZM249 1301Q198 1301 161.0 1336.0Q124 1371 124 1420Q124 1470 161.0 1504.5Q198 1539 249 1539Q301 1539 338.0 1504.5Q375 1470 375 1420Q375 1371 338.0 1336.0Q301 1301 249 1301Z" transform="translate(171.63,276.00) scale(0.004395,-0.004395)" fill="#FFFFFF"/>
    <path d="M598 1118V964H20V1118ZM188 1384H368V290Q368 215 398.5 180.5Q429 146 500 146Q517 146 543.5 150.0Q570 154 592 158L629 6Q601 -4 565.5 -9.0Q530 -14 495 -14Q350 -14 269.0 62.5Q188 139 188 276Z" transform="translate(173.81,276.00) scale(0.004395,-0.004395)" fill="#FFFFFF"/>
    <path d="M158 0V1118H338V0ZM249 1301Q198 1301 161.0 1336.0Q124 1371 124 1420Q124 1470 161.0 1504.5Q198 1539 249 1539Q301 1539 338.0 1504.5Q375 1470 375 1420Q375 1371 338.0 1336.0Q301 1301 249 1301Z" transform="translate(176.76,276.00) scale(0.004395,-0.004395)" fill="#FFFFFF"/>
    <path d="M471 -26Q365 -26 278.5 14.0Q192 54 141.0 131.0Q90 208 90 318Q90 414 128.0 474.0Q166 534 229.5 568.5Q293 603 370.0 620.0Q447 637 525 647Q625 660 688.0 667.0Q751 674 781.5 691.0Q812 708 812 749V755Q812 825 786.0 873.5Q760 922 708.0 948.0Q656 974 578 974Q498 974 441.0 949.0Q384 924 348.5 886.5Q313 849 295 810L122 867Q165 969 238.0 1026.5Q311 1084 399.0 1108.0Q487 1132 573 1132Q629 1132 700.5 1118.5Q772 1105 838.5 1065.0Q905 1025 948.5 946.5Q992 868 992 737V0H815V152H803Q784 113 742.0 71.5Q700 30 633.0 2.0Q566 -26 471 -26ZM502 133Q602 133 671.0 172.0Q740 211 776.0 273.5Q812 336 812 404V559Q801 546 764.0 535.5Q727 525 679.5 517.0Q632 509 587.5 503.5Q543 498 517 495Q452 487 395.5 467.5Q339 448 305.0 410.5Q271 373 271 309Q271 251 301.0 212.0Q331 173 383.0 153.0Q435 133 502 133Z" transform="translate(178.94,276.00) scale(0.004395,-0.004395)" fill="#FFFFFF"/>
    <path d="M598 1118V964H20V1118ZM188 1384H368V290Q368 215 398.5 180.5Q429 146 500 146Q517 146 543.5 150.0Q570 154 592 158L629 6Q601 -4 565.5 -9.0Q530 -14 495 -14Q350 -14 269.0 62.5Q188 139 188 276Z" transform="translate(183.99,276.00) scale(0.004395,-0.004395)" fill="#FFFFFF"/>
    <path d="M158 0V1118H338V0ZM249 1301Q198 1301 161.0 1336.0Q124 1371 124 1420Q124 1470 161.0 1504.5Q198 1539 249 1539Q301 1539 338.0 1504.5Q375 1470 375 1420Q375 1371 338.0 1336.0Q301 1301 249 1301Z" transform="translate(186.94,276.00) scale(0.004395,-0.004395)" fill="#FFFFFF"/>
    <path d="M481 0 54 1118H251L489 455Q527 352 553.5 249.5Q580 147 609 51H543Q572 147 598.5 249.5Q625 352 662 455L900 1118H1097L670 0Z" transform="translate(189.12,276.00) scale(0.004395,-0.004395)" fill="#FFFFFF"/>
    <path d="M628 -24Q466 -24 348.5 48.0Q231 120 167.5 249.0Q104 378 104 550Q104 722 166.0 853.0Q228 984 341.5 1058.0Q455 1132 607 1132Q696 1132 782.5 1102.5Q869 1073 939.5 1007.5Q1010 942 1052.0 835.0Q1094 728 1094 573V498H226V650H997L913 594Q913 704 878.5 789.5Q844 875 776.0 923.5Q708 972 607 972Q506 972 434.0 922.5Q362 873 324.0 793.5Q286 714 286 623V522Q286 398 329.0 311.5Q372 225 449.5 180.5Q527 136 629 136Q695 136 749.0 155.0Q803 174 842.0 212.5Q881 251 902 308L1076 260Q1050 176 988.0 112.0Q926 48 834.5 12.0Q743 -24 628 -24Z" transform="translate(194.17,276.00) scale(0.004395,-0.004395)" fill="#FFFFFF"/>
  </g>
</svg>